<svg width="600" height="600" viewBox="0 0 600 600" fill="#393940" xmlns="http://www.w3.org/2000/svg">
<path d="M162 55.1312H204.009V272.054C228.926 247.869 262.915 232.979 300.382 232.979C364.552 232.979 418.521 276.657 434.18 335.906H376.508C362.989 307.448 333.983 287.773 300.382 287.773C253.862 287.773 216.149 325.485 216.149 372.005C216.149 418.525 253.862 456.238 300.382 456.238C332.38 456.238 360.212 438.395 374.469 412.116H338.487V376.016H438.687C436.231 450.287 375.25 509.742 300.382 509.742C228.573 509.742 169.54 455.047 162.668 385.045H162V371.361V55.1312Z"/>
</svg>
